<svg xmlns="http://www.w3.org/2000/svg" xmlns:xlink="http://www.w3.org/1999/xlink" width="500" zoomAndPan="magnify" viewBox="0 0 375 374.999991" height="500" preserveAspectRatio="xMidYMid meet" version="1.0"><defs><g/></defs><g fill="#f16e00" fill-opacity="1"><g transform="translate(141.692023, 285.305547)"><g><path d="M 22.898438 1.253906 C 32.9375 1.253906 41.09375 -6.902344 41.09375 -17.253906 L 41.09375 -218.953125 L 27.289062 -218.953125 L 27.289062 -190.410156 C 25.722656 -190.722656 24.46875 -190.722656 22.898438 -190.722656 C 12.859375 -190.722656 4.390625 -182.566406 4.390625 -172.527344 L 4.390625 -17.253906 C 4.390625 -6.902344 12.859375 1.253906 22.898438 1.253906 Z M 18.507812 -16 L 18.507812 -173.78125 C 18.507812 -176.292969 20.390625 -178.175781 22.898438 -178.175781 C 25.410156 -178.175781 27.289062 -176.292969 27.289062 -173.78125 L 27.289062 -16 C 27.289062 -13.488281 25.410156 -11.605469 22.898438 -11.605469 C 20.390625 -11.605469 18.507812 -13.488281 18.507812 -16 Z M 18.507812 -16 "/></g></g></g><g fill="#f16e00" fill-opacity="1"><g transform="translate(187.490292, 285.305547)"><g><path d="M 41.09375 29.488281 L 41.09375 -189.78125 L 27.289062 -189.78125 L 27.289062 -16 C 27.289062 -13.488281 25.410156 -11.605469 22.898438 -11.605469 C 20.390625 -11.605469 18.507812 -13.488281 18.507812 -16 L 18.507812 -189.78125 L 4.390625 -189.78125 L 4.390625 -17.253906 C 4.390625 -6.902344 12.859375 1.253906 22.898438 1.253906 C 24.46875 1.253906 25.722656 0.941406 27.289062 0.628906 L 27.289062 29.488281 Z M 41.09375 29.488281 "/></g></g></g><g fill="#cd3514" fill-opacity="1"><g transform="translate(202.565542, 90.888335)"><g><path d="M 1.5 0 L 6.953125 -6.953125 L 1.5 -13.921875 L 13.3125 -13.921875 L 7.859375 -6.953125 L 13.3125 0 Z M 7.40625 -7.5625 L 11.8125 -13.1875 L 3 -13.1875 Z M 11.8125 -0.734375 L 7.40625 -6.359375 L 3 -0.734375 Z M 11.8125 -0.734375 "/></g></g></g><g fill="#cd3514" fill-opacity="1"><g transform="translate(188.821252, 90.888335)"><g><path d="M 13.484375 -3.546875 L 13.484375 0 L 2.875 0 L 2.875 -13.921875 L 3.625 -13.921875 L 3.625 -3.546875 Z M 13.484375 -3.546875 "/></g></g></g><g fill="#cd3514" fill-opacity="1"><g transform="translate(215.405996, 90.888335)"><g><path d="M 2.40625 0 L 2.40625 -13.921875 L 7.578125 -13.921875 C 8.585938 -13.921875 9.523438 -13.664062 10.390625 -13.15625 C 11.253906 -12.65625 11.9375 -11.972656 12.4375 -11.109375 C 12.945312 -10.242188 13.203125 -9.304688 13.203125 -8.296875 L 13.203125 -5.625 C 13.203125 -4.601562 12.945312 -3.660156 12.4375 -2.796875 C 11.9375 -1.941406 11.253906 -1.257812 10.390625 -0.75 C 9.523438 -0.25 8.585938 0 7.578125 0 Z M 2.40625 0 "/></g></g></g></svg>