<svg xmlns="http://www.w3.org/2000/svg" xmlns:xlink="http://www.w3.org/1999/xlink" width="500" zoomAndPan="magnify" viewBox="0 0 375 374.999991" height="500" preserveAspectRatio="xMidYMid meet" version="1.0"><defs><g/></defs><g fill="#ffffff" fill-opacity="1"><g transform="translate(141.703939, 281.291451)"><g><path d="M 22.898438 1.253906 C 32.9375 1.253906 41.089844 -6.902344 41.089844 -17.253906 L 41.089844 -218.945312 L 27.289062 -218.945312 L 27.289062 -190.402344 C 25.722656 -190.714844 24.464844 -190.714844 22.898438 -190.714844 C 12.859375 -190.714844 4.390625 -182.558594 4.390625 -172.523438 L 4.390625 -17.253906 C 4.390625 -6.902344 12.859375 1.253906 22.898438 1.253906 Z M 18.507812 -15.996094 L 18.507812 -173.777344 C 18.507812 -176.285156 20.390625 -178.167969 22.898438 -178.167969 C 25.40625 -178.167969 27.289062 -176.285156 27.289062 -173.777344 L 27.289062 -15.996094 C 27.289062 -13.488281 25.40625 -11.605469 22.898438 -11.605469 C 20.390625 -11.605469 18.507812 -13.488281 18.507812 -15.996094 Z M 18.507812 -15.996094 "/></g></g></g><g fill="#ffffff" fill-opacity="1"><g transform="translate(187.496463, 281.291451)"><g><path d="M 41.089844 29.484375 L 41.089844 -189.773438 L 27.289062 -189.773438 L 27.289062 -15.996094 C 27.289062 -13.488281 25.40625 -11.605469 22.898438 -11.605469 C 20.390625 -11.605469 18.507812 -13.488281 18.507812 -15.996094 L 18.507812 -189.773438 L 4.390625 -189.773438 L 4.390625 -17.253906 C 4.390625 -6.902344 12.859375 1.253906 22.898438 1.253906 C 24.464844 1.253906 25.722656 0.941406 27.289062 0.628906 L 27.289062 29.484375 Z M 41.089844 29.484375 "/></g></g></g><g fill="#ffffff" fill-opacity="1"><g transform="translate(202.565542, 90.888335)"><g><path d="M 1.5 0 L 6.953125 -6.953125 L 1.5 -13.921875 L 13.3125 -13.921875 L 7.859375 -6.953125 L 13.3125 0 Z M 7.40625 -7.5625 L 11.8125 -13.1875 L 3 -13.1875 Z M 11.8125 -0.734375 L 7.40625 -6.359375 L 3 -0.734375 Z M 11.8125 -0.734375 "/></g></g></g><g fill="#ffffff" fill-opacity="1"><g transform="translate(188.821252, 90.888335)"><g><path d="M 13.484375 -3.546875 L 13.484375 0 L 2.875 0 L 2.875 -13.921875 L 3.625 -13.921875 L 3.625 -3.546875 Z M 13.484375 -3.546875 "/></g></g></g><g fill="#ffffff" fill-opacity="1"><g transform="translate(215.405996, 90.888335)"><g><path d="M 2.40625 0 L 2.40625 -13.921875 L 7.578125 -13.921875 C 8.585938 -13.921875 9.523438 -13.664062 10.390625 -13.15625 C 11.253906 -12.65625 11.9375 -11.972656 12.4375 -11.109375 C 12.945312 -10.242188 13.203125 -9.304688 13.203125 -8.296875 L 13.203125 -5.625 C 13.203125 -4.601562 12.945312 -3.660156 12.4375 -2.796875 C 11.9375 -1.941406 11.253906 -1.257812 10.390625 -0.75 C 9.523438 -0.25 8.585938 0 7.578125 0 Z M 2.40625 0 "/></g></g></g></svg>